<mxfile host="Electron" modified="2023-12-03T11:39:29.332Z" agent="Mozilla/5.0 (Windows NT 10.0; Win64; x64) AppleWebKit/537.36 (KHTML, like Gecko) draw.io/22.0.3 Chrome/114.0.5735.289 Electron/25.8.4 Safari/537.36" etag="AUlmgNApDnywpOr30loV" version="22.0.3" type="device">
  <diagram name="Страница — 1" id="1Ov0hRXJxs18t8y7WYKu">
    <mxGraphModel dx="1176" dy="1843" grid="1" gridSize="1" guides="1" tooltips="1" connect="1" arrows="1" fold="1" page="1" pageScale="1" pageWidth="827" pageHeight="1169" math="0" shadow="0">
      <root>
        <mxCell id="0" />
        <mxCell id="1" parent="0" />
        <mxCell id="ktROlowu1Rv2FZnEjjiO-4" value="" style="edgeStyle=orthogonalEdgeStyle;rounded=0;orthogonalLoop=1;jettySize=auto;html=1;" parent="1" source="ktROlowu1Rv2FZnEjjiO-1" target="ktROlowu1Rv2FZnEjjiO-3" edge="1">
          <mxGeometry relative="1" as="geometry" />
        </mxCell>
        <mxCell id="ktROlowu1Rv2FZnEjjiO-1" value="Начало(метод сортировки пузырьком)" style="ellipse;whiteSpace=wrap;html=1;" parent="1" vertex="1">
          <mxGeometry x="301" y="-860" width="226" height="60" as="geometry" />
        </mxCell>
        <mxCell id="ktROlowu1Rv2FZnEjjiO-6" style="edgeStyle=orthogonalEdgeStyle;rounded=0;orthogonalLoop=1;jettySize=auto;html=1;exitX=0.5;exitY=1;exitDx=0;exitDy=0;entryX=0.5;entryY=0;entryDx=0;entryDy=0;" parent="1" source="ktROlowu1Rv2FZnEjjiO-3" target="ktROlowu1Rv2FZnEjjiO-5" edge="1">
          <mxGeometry relative="1" as="geometry" />
        </mxCell>
        <mxCell id="ktROlowu1Rv2FZnEjjiO-3" value="count=0,sr=0" style="whiteSpace=wrap;html=1;" parent="1" vertex="1">
          <mxGeometry x="371" y="-770" width="86" height="30" as="geometry" />
        </mxCell>
        <mxCell id="ktROlowu1Rv2FZnEjjiO-8" style="edgeStyle=orthogonalEdgeStyle;rounded=0;orthogonalLoop=1;jettySize=auto;html=1;exitX=0.5;exitY=1;exitDx=0;exitDy=0;entryX=0.5;entryY=0;entryDx=0;entryDy=0;" parent="1" source="ktROlowu1Rv2FZnEjjiO-5" target="ktROlowu1Rv2FZnEjjiO-7" edge="1">
          <mxGeometry relative="1" as="geometry" />
        </mxCell>
        <mxCell id="ktROlowu1Rv2FZnEjjiO-20" style="edgeStyle=orthogonalEdgeStyle;rounded=0;orthogonalLoop=1;jettySize=auto;html=1;exitX=1;exitY=0.5;exitDx=0;exitDy=0;" parent="1" source="ktROlowu1Rv2FZnEjjiO-5" edge="1">
          <mxGeometry relative="1" as="geometry">
            <mxPoint x="420" y="-310" as="targetPoint" />
            <Array as="points">
              <mxPoint x="560" y="-695" />
              <mxPoint x="560" y="-380" />
              <mxPoint x="420" y="-380" />
              <mxPoint x="420" y="-310" />
            </Array>
          </mxGeometry>
        </mxCell>
        <mxCell id="ktROlowu1Rv2FZnEjjiO-5" value="i = 0; i &amp;lt; n - 1; i++" style="shape=hexagon;perimeter=hexagonPerimeter2;whiteSpace=wrap;html=1;fixedSize=1;" parent="1" vertex="1">
          <mxGeometry x="347" y="-710" width="134" height="30" as="geometry" />
        </mxCell>
        <mxCell id="ktROlowu1Rv2FZnEjjiO-11" value="" style="edgeStyle=orthogonalEdgeStyle;rounded=0;orthogonalLoop=1;jettySize=auto;html=1;" parent="1" source="ktROlowu1Rv2FZnEjjiO-7" target="ktROlowu1Rv2FZnEjjiO-10" edge="1">
          <mxGeometry relative="1" as="geometry" />
        </mxCell>
        <mxCell id="ktROlowu1Rv2FZnEjjiO-7" value="j = 0; j &amp;lt; n - i - 1; j++" style="shape=hexagon;perimeter=hexagonPerimeter2;whiteSpace=wrap;html=1;fixedSize=1;" parent="1" vertex="1">
          <mxGeometry x="347" y="-650" width="134" height="30" as="geometry" />
        </mxCell>
        <mxCell id="ktROlowu1Rv2FZnEjjiO-13" value="" style="edgeStyle=orthogonalEdgeStyle;rounded=0;orthogonalLoop=1;jettySize=auto;html=1;" parent="1" source="ktROlowu1Rv2FZnEjjiO-10" target="ktROlowu1Rv2FZnEjjiO-12" edge="1">
          <mxGeometry relative="1" as="geometry" />
        </mxCell>
        <mxCell id="ktROlowu1Rv2FZnEjjiO-10" value="sr++" style="whiteSpace=wrap;html=1;" parent="1" vertex="1">
          <mxGeometry x="396" y="-600" width="36" height="25" as="geometry" />
        </mxCell>
        <mxCell id="ktROlowu1Rv2FZnEjjiO-15" value="" style="edgeStyle=orthogonalEdgeStyle;rounded=0;orthogonalLoop=1;jettySize=auto;html=1;" parent="1" source="ktROlowu1Rv2FZnEjjiO-12" target="ktROlowu1Rv2FZnEjjiO-14" edge="1">
          <mxGeometry relative="1" as="geometry" />
        </mxCell>
        <mxCell id="ktROlowu1Rv2FZnEjjiO-12" value="a[j] &amp;gt; a[j + 1]" style="rhombus;whiteSpace=wrap;html=1;" parent="1" vertex="1">
          <mxGeometry x="366" y="-550" width="96" height="52.5" as="geometry" />
        </mxCell>
        <mxCell id="ktROlowu1Rv2FZnEjjiO-16" style="edgeStyle=orthogonalEdgeStyle;rounded=0;orthogonalLoop=1;jettySize=auto;html=1;exitX=0.5;exitY=1;exitDx=0;exitDy=0;entryX=0;entryY=0.5;entryDx=0;entryDy=0;" parent="1" source="ktROlowu1Rv2FZnEjjiO-14" target="ktROlowu1Rv2FZnEjjiO-7" edge="1">
          <mxGeometry relative="1" as="geometry" />
        </mxCell>
        <mxCell id="ktROlowu1Rv2FZnEjjiO-14" value="swap(a[j], a[j + 1])&lt;br&gt;count++" style="whiteSpace=wrap;html=1;" parent="1" vertex="1">
          <mxGeometry x="354" y="-470" width="120" height="31.25" as="geometry" />
        </mxCell>
        <mxCell id="ktROlowu1Rv2FZnEjjiO-19" value="" style="endArrow=classic;html=1;rounded=0;exitX=1;exitY=0.5;exitDx=0;exitDy=0;entryX=0;entryY=0.5;entryDx=0;entryDy=0;" parent="1" source="ktROlowu1Rv2FZnEjjiO-7" target="ktROlowu1Rv2FZnEjjiO-5" edge="1">
          <mxGeometry width="50" height="50" relative="1" as="geometry">
            <mxPoint x="370" y="-450" as="sourcePoint" />
            <mxPoint x="420" y="-500" as="targetPoint" />
            <Array as="points">
              <mxPoint x="530" y="-635" />
              <mxPoint x="530" y="-400" />
              <mxPoint x="290" y="-400" />
              <mxPoint x="290" y="-695" />
            </Array>
          </mxGeometry>
        </mxCell>
        <mxCell id="ktROlowu1Rv2FZnEjjiO-23" value="" style="edgeStyle=orthogonalEdgeStyle;rounded=0;orthogonalLoop=1;jettySize=auto;html=1;" parent="1" source="ktROlowu1Rv2FZnEjjiO-21" target="ktROlowu1Rv2FZnEjjiO-22" edge="1">
          <mxGeometry relative="1" as="geometry" />
        </mxCell>
        <mxCell id="ktROlowu1Rv2FZnEjjiO-29" style="edgeStyle=orthogonalEdgeStyle;rounded=0;orthogonalLoop=1;jettySize=auto;html=1;exitX=1;exitY=0.5;exitDx=0;exitDy=0;" parent="1" source="ktROlowu1Rv2FZnEjjiO-21" edge="1">
          <mxGeometry relative="1" as="geometry">
            <mxPoint x="420" y="-123" as="targetPoint" />
            <mxPoint x="468.9999999999999" y="-290" as="sourcePoint" />
            <Array as="points">
              <mxPoint x="513" y="-290" />
              <mxPoint x="513" y="-123" />
            </Array>
          </mxGeometry>
        </mxCell>
        <mxCell id="ktROlowu1Rv2FZnEjjiO-21" value="t==&#39;y&#39;" style="rhombus;whiteSpace=wrap;html=1;" parent="1" vertex="1">
          <mxGeometry x="380" y="-310" width="80" height="40" as="geometry" />
        </mxCell>
        <mxCell id="ktROlowu1Rv2FZnEjjiO-25" value="" style="edgeStyle=orthogonalEdgeStyle;rounded=0;orthogonalLoop=1;jettySize=auto;html=1;" parent="1" source="ktROlowu1Rv2FZnEjjiO-22" target="ktROlowu1Rv2FZnEjjiO-24" edge="1">
          <mxGeometry relative="1" as="geometry" />
        </mxCell>
        <mxCell id="ktROlowu1Rv2FZnEjjiO-28" value="" style="edgeStyle=orthogonalEdgeStyle;rounded=0;orthogonalLoop=1;jettySize=auto;html=1;" parent="1" source="ktROlowu1Rv2FZnEjjiO-22" target="ktROlowu1Rv2FZnEjjiO-27" edge="1">
          <mxGeometry relative="1" as="geometry">
            <Array as="points">
              <mxPoint x="490" y="-235" />
              <mxPoint x="490" y="-135" />
              <mxPoint x="420" y="-135" />
            </Array>
          </mxGeometry>
        </mxCell>
        <mxCell id="ktROlowu1Rv2FZnEjjiO-22" value="&amp;nbsp;t = 0; t &amp;lt; n; t++" style="shape=hexagon;perimeter=hexagonPerimeter2;whiteSpace=wrap;html=1;fixedSize=1;" parent="1" vertex="1">
          <mxGeometry x="370" y="-250" width="100" height="30" as="geometry" />
        </mxCell>
        <mxCell id="ktROlowu1Rv2FZnEjjiO-26" style="edgeStyle=orthogonalEdgeStyle;rounded=0;orthogonalLoop=1;jettySize=auto;html=1;exitX=0.5;exitY=1;exitDx=0;exitDy=0;entryX=0;entryY=0.5;entryDx=0;entryDy=0;" parent="1" source="ktROlowu1Rv2FZnEjjiO-24" target="ktROlowu1Rv2FZnEjjiO-22" edge="1">
          <mxGeometry relative="1" as="geometry" />
        </mxCell>
        <mxCell id="ktROlowu1Rv2FZnEjjiO-24" value="a[t]" style="shape=parallelogram;perimeter=parallelogramPerimeter;whiteSpace=wrap;html=1;fixedSize=1;" parent="1" vertex="1">
          <mxGeometry x="390" y="-200" width="60" height="35" as="geometry" />
        </mxCell>
        <mxCell id="ktROlowu1Rv2FZnEjjiO-33" style="edgeStyle=orthogonalEdgeStyle;rounded=0;orthogonalLoop=1;jettySize=auto;html=1;exitX=0.5;exitY=1;exitDx=0;exitDy=0;entryX=0.5;entryY=0;entryDx=0;entryDy=0;" parent="1" source="ktROlowu1Rv2FZnEjjiO-27" target="ktROlowu1Rv2FZnEjjiO-32" edge="1">
          <mxGeometry relative="1" as="geometry" />
        </mxCell>
        <mxCell id="ktROlowu1Rv2FZnEjjiO-27" value="Вывод количества сравнений и перестановок" style="shape=parallelogram;perimeter=parallelogramPerimeter;whiteSpace=wrap;html=1;fixedSize=1;" parent="1" vertex="1">
          <mxGeometry x="345" y="-110" width="150" height="60" as="geometry" />
        </mxCell>
        <mxCell id="ktROlowu1Rv2FZnEjjiO-30" value="Нет" style="text;html=1;strokeColor=none;fillColor=none;align=center;verticalAlign=middle;whiteSpace=wrap;rounded=0;" parent="1" vertex="1">
          <mxGeometry x="451.5" y="-315" width="60" height="30" as="geometry" />
        </mxCell>
        <mxCell id="ktROlowu1Rv2FZnEjjiO-32" value="Конец" style="ellipse;whiteSpace=wrap;html=1;" parent="1" vertex="1">
          <mxGeometry x="388.5" y="-36" width="63" height="32" as="geometry" />
        </mxCell>
        <mxCell id="ktROlowu1Rv2FZnEjjiO-34" value="Нет" style="text;html=1;strokeColor=none;fillColor=none;align=center;verticalAlign=middle;whiteSpace=wrap;rounded=0;" parent="1" vertex="1">
          <mxGeometry x="320.98" y="-550" width="60" height="30" as="geometry" />
        </mxCell>
        <mxCell id="ktROlowu1Rv2FZnEjjiO-35" value="Да" style="text;html=1;strokeColor=none;fillColor=none;align=center;verticalAlign=middle;whiteSpace=wrap;rounded=0;" parent="1" vertex="1">
          <mxGeometry x="405" y="-276" width="60" height="30" as="geometry" />
        </mxCell>
        <mxCell id="ktROlowu1Rv2FZnEjjiO-36" value="Да" style="text;html=1;strokeColor=none;fillColor=none;align=center;verticalAlign=middle;whiteSpace=wrap;rounded=0;" parent="1" vertex="1">
          <mxGeometry x="397" y="-504" width="60" height="30" as="geometry" />
        </mxCell>
        <mxCell id="ktROlowu1Rv2FZnEjjiO-37" value="" style="edgeStyle=orthogonalEdgeStyle;rounded=0;orthogonalLoop=1;jettySize=auto;html=1;" parent="1" source="ktROlowu1Rv2FZnEjjiO-38" target="ktROlowu1Rv2FZnEjjiO-40" edge="1">
          <mxGeometry relative="1" as="geometry" />
        </mxCell>
        <mxCell id="ktROlowu1Rv2FZnEjjiO-38" value="Начало(сортировка&lt;br/&gt;методом выбора максимального элемента&lt;span style=&quot;background-color: initial;&quot;&gt;)&lt;/span&gt;" style="ellipse;whiteSpace=wrap;html=1;" parent="1" vertex="1">
          <mxGeometry x="295.98" y="87" width="226" height="60" as="geometry" />
        </mxCell>
        <mxCell id="ktROlowu1Rv2FZnEjjiO-39" style="edgeStyle=orthogonalEdgeStyle;rounded=0;orthogonalLoop=1;jettySize=auto;html=1;exitX=0.5;exitY=1;exitDx=0;exitDy=0;entryX=0.5;entryY=0;entryDx=0;entryDy=0;" parent="1" source="ktROlowu1Rv2FZnEjjiO-40" target="ktROlowu1Rv2FZnEjjiO-43" edge="1">
          <mxGeometry relative="1" as="geometry" />
        </mxCell>
        <mxCell id="ktROlowu1Rv2FZnEjjiO-40" value="count=0,sr=0" style="whiteSpace=wrap;html=1;" parent="1" vertex="1">
          <mxGeometry x="365.5" y="177" width="86" height="30" as="geometry" />
        </mxCell>
        <mxCell id="ktROlowu1Rv2FZnEjjiO-70" style="edgeStyle=orthogonalEdgeStyle;rounded=0;orthogonalLoop=1;jettySize=auto;html=1;exitX=0.5;exitY=1;exitDx=0;exitDy=0;entryX=0.5;entryY=0;entryDx=0;entryDy=0;" parent="1" source="ktROlowu1Rv2FZnEjjiO-43" target="ktROlowu1Rv2FZnEjjiO-69" edge="1">
          <mxGeometry relative="1" as="geometry" />
        </mxCell>
        <mxCell id="ktROlowu1Rv2FZnEjjiO-78" style="edgeStyle=orthogonalEdgeStyle;rounded=0;orthogonalLoop=1;jettySize=auto;html=1;exitX=1;exitY=0.5;exitDx=0;exitDy=0;" parent="1" source="ktROlowu1Rv2FZnEjjiO-43" target="ktROlowu1Rv2FZnEjjiO-56" edge="1">
          <mxGeometry relative="1" as="geometry">
            <Array as="points">
              <mxPoint x="555" y="243" />
              <mxPoint x="555" y="747" />
              <mxPoint x="411" y="747" />
            </Array>
          </mxGeometry>
        </mxCell>
        <mxCell id="ktROlowu1Rv2FZnEjjiO-43" value="i = 0; i &amp;lt; n - 1; i++" style="shape=hexagon;perimeter=hexagonPerimeter2;whiteSpace=wrap;html=1;fixedSize=1;" parent="1" vertex="1">
          <mxGeometry x="341.98" y="228" width="134" height="30" as="geometry" />
        </mxCell>
        <mxCell id="ktROlowu1Rv2FZnEjjiO-44" value="" style="edgeStyle=orthogonalEdgeStyle;rounded=0;orthogonalLoop=1;jettySize=auto;html=1;" parent="1" source="ktROlowu1Rv2FZnEjjiO-45" target="ktROlowu1Rv2FZnEjjiO-47" edge="1">
          <mxGeometry relative="1" as="geometry" />
        </mxCell>
        <mxCell id="ktROlowu1Rv2FZnEjjiO-73" value="" style="edgeStyle=orthogonalEdgeStyle;rounded=0;orthogonalLoop=1;jettySize=auto;html=1;entryX=0.5;entryY=0;entryDx=0;entryDy=0;" parent="1" source="ktROlowu1Rv2FZnEjjiO-45" target="ktROlowu1Rv2FZnEjjiO-72" edge="1">
          <mxGeometry relative="1" as="geometry">
            <Array as="points">
              <mxPoint x="525" y="351" />
              <mxPoint x="525" y="582" />
              <mxPoint x="408" y="582" />
            </Array>
          </mxGeometry>
        </mxCell>
        <mxCell id="ktROlowu1Rv2FZnEjjiO-45" value="j = 0; j &amp;lt; n - i - 1; j++" style="shape=hexagon;perimeter=hexagonPerimeter2;whiteSpace=wrap;html=1;fixedSize=1;" parent="1" vertex="1">
          <mxGeometry x="341.98" y="336" width="134" height="30" as="geometry" />
        </mxCell>
        <mxCell id="ktROlowu1Rv2FZnEjjiO-46" value="" style="edgeStyle=orthogonalEdgeStyle;rounded=0;orthogonalLoop=1;jettySize=auto;html=1;" parent="1" source="ktROlowu1Rv2FZnEjjiO-47" target="ktROlowu1Rv2FZnEjjiO-50" edge="1">
          <mxGeometry relative="1" as="geometry" />
        </mxCell>
        <mxCell id="ktROlowu1Rv2FZnEjjiO-47" value="sr++" style="whiteSpace=wrap;html=1;" parent="1" vertex="1">
          <mxGeometry x="390.98" y="386" width="36" height="25" as="geometry" />
        </mxCell>
        <mxCell id="ktROlowu1Rv2FZnEjjiO-48" value="" style="edgeStyle=orthogonalEdgeStyle;rounded=0;orthogonalLoop=1;jettySize=auto;html=1;" parent="1" source="ktROlowu1Rv2FZnEjjiO-50" target="ktROlowu1Rv2FZnEjjiO-52" edge="1">
          <mxGeometry relative="1" as="geometry" />
        </mxCell>
        <mxCell id="ktROlowu1Rv2FZnEjjiO-50" value="a[j] &amp;lt; a[minm]" style="rhombus;whiteSpace=wrap;html=1;" parent="1" vertex="1">
          <mxGeometry x="360.98" y="436" width="96" height="52.5" as="geometry" />
        </mxCell>
        <mxCell id="ktROlowu1Rv2FZnEjjiO-51" style="edgeStyle=orthogonalEdgeStyle;rounded=0;orthogonalLoop=1;jettySize=auto;html=1;exitX=0.5;exitY=1;exitDx=0;exitDy=0;entryX=0;entryY=0.5;entryDx=0;entryDy=0;" parent="1" source="ktROlowu1Rv2FZnEjjiO-52" target="ktROlowu1Rv2FZnEjjiO-45" edge="1">
          <mxGeometry relative="1" as="geometry" />
        </mxCell>
        <mxCell id="ktROlowu1Rv2FZnEjjiO-52" value="minm = j" style="whiteSpace=wrap;html=1;" parent="1" vertex="1">
          <mxGeometry x="379.47" y="516" width="59.02" height="31.25" as="geometry" />
        </mxCell>
        <mxCell id="ktROlowu1Rv2FZnEjjiO-54" value="" style="edgeStyle=orthogonalEdgeStyle;rounded=0;orthogonalLoop=1;jettySize=auto;html=1;" parent="1" source="ktROlowu1Rv2FZnEjjiO-56" target="ktROlowu1Rv2FZnEjjiO-59" edge="1">
          <mxGeometry relative="1" as="geometry" />
        </mxCell>
        <mxCell id="ktROlowu1Rv2FZnEjjiO-55" style="edgeStyle=orthogonalEdgeStyle;rounded=0;orthogonalLoop=1;jettySize=auto;html=1;exitX=1;exitY=0.5;exitDx=0;exitDy=0;" parent="1" source="ktROlowu1Rv2FZnEjjiO-56" edge="1">
          <mxGeometry relative="1" as="geometry">
            <mxPoint x="410.98" y="1014" as="targetPoint" />
            <mxPoint x="459.9799999999999" y="847" as="sourcePoint" />
            <Array as="points">
              <mxPoint x="503.98" y="847" />
              <mxPoint x="503.98" y="1014" />
            </Array>
          </mxGeometry>
        </mxCell>
        <mxCell id="ktROlowu1Rv2FZnEjjiO-56" value="t==&#39;y&#39;" style="rhombus;whiteSpace=wrap;html=1;" parent="1" vertex="1">
          <mxGeometry x="370.98" y="827" width="80" height="40" as="geometry" />
        </mxCell>
        <mxCell id="ktROlowu1Rv2FZnEjjiO-57" value="" style="edgeStyle=orthogonalEdgeStyle;rounded=0;orthogonalLoop=1;jettySize=auto;html=1;" parent="1" source="ktROlowu1Rv2FZnEjjiO-59" target="ktROlowu1Rv2FZnEjjiO-61" edge="1">
          <mxGeometry relative="1" as="geometry" />
        </mxCell>
        <mxCell id="ktROlowu1Rv2FZnEjjiO-58" value="" style="edgeStyle=orthogonalEdgeStyle;rounded=0;orthogonalLoop=1;jettySize=auto;html=1;" parent="1" source="ktROlowu1Rv2FZnEjjiO-59" target="ktROlowu1Rv2FZnEjjiO-63" edge="1">
          <mxGeometry relative="1" as="geometry">
            <Array as="points">
              <mxPoint x="480.98" y="902" />
              <mxPoint x="480.98" y="1002" />
              <mxPoint x="410.98" y="1002" />
            </Array>
          </mxGeometry>
        </mxCell>
        <mxCell id="ktROlowu1Rv2FZnEjjiO-59" value="&amp;nbsp;t = 0; t &amp;lt; n; t++" style="shape=hexagon;perimeter=hexagonPerimeter2;whiteSpace=wrap;html=1;fixedSize=1;" parent="1" vertex="1">
          <mxGeometry x="360.98" y="887" width="100" height="30" as="geometry" />
        </mxCell>
        <mxCell id="ktROlowu1Rv2FZnEjjiO-60" style="edgeStyle=orthogonalEdgeStyle;rounded=0;orthogonalLoop=1;jettySize=auto;html=1;exitX=0.5;exitY=1;exitDx=0;exitDy=0;entryX=0;entryY=0.5;entryDx=0;entryDy=0;" parent="1" source="ktROlowu1Rv2FZnEjjiO-61" target="ktROlowu1Rv2FZnEjjiO-59" edge="1">
          <mxGeometry relative="1" as="geometry" />
        </mxCell>
        <mxCell id="ktROlowu1Rv2FZnEjjiO-61" value="a[t]" style="shape=parallelogram;perimeter=parallelogramPerimeter;whiteSpace=wrap;html=1;fixedSize=1;" parent="1" vertex="1">
          <mxGeometry x="380.98" y="937" width="60" height="35" as="geometry" />
        </mxCell>
        <mxCell id="ktROlowu1Rv2FZnEjjiO-62" style="edgeStyle=orthogonalEdgeStyle;rounded=0;orthogonalLoop=1;jettySize=auto;html=1;exitX=0.5;exitY=1;exitDx=0;exitDy=0;entryX=0.5;entryY=0;entryDx=0;entryDy=0;" parent="1" source="ktROlowu1Rv2FZnEjjiO-63" target="ktROlowu1Rv2FZnEjjiO-65" edge="1">
          <mxGeometry relative="1" as="geometry" />
        </mxCell>
        <mxCell id="ktROlowu1Rv2FZnEjjiO-63" value="Вывод количества сравнений и перестановок" style="shape=parallelogram;perimeter=parallelogramPerimeter;whiteSpace=wrap;html=1;fixedSize=1;" parent="1" vertex="1">
          <mxGeometry x="335.98" y="1027" width="150" height="60" as="geometry" />
        </mxCell>
        <mxCell id="ktROlowu1Rv2FZnEjjiO-64" value="Нет" style="text;html=1;strokeColor=none;fillColor=none;align=center;verticalAlign=middle;whiteSpace=wrap;rounded=0;" parent="1" vertex="1">
          <mxGeometry x="442.48" y="822" width="60" height="30" as="geometry" />
        </mxCell>
        <mxCell id="ktROlowu1Rv2FZnEjjiO-65" value="Конец" style="ellipse;whiteSpace=wrap;html=1;" parent="1" vertex="1">
          <mxGeometry x="379.48" y="1101" width="63" height="32" as="geometry" />
        </mxCell>
        <mxCell id="ktROlowu1Rv2FZnEjjiO-66" value="Нет" style="text;html=1;strokeColor=none;fillColor=none;align=center;verticalAlign=middle;whiteSpace=wrap;rounded=0;" parent="1" vertex="1">
          <mxGeometry x="315" y="435" width="60" height="30" as="geometry" />
        </mxCell>
        <mxCell id="ktROlowu1Rv2FZnEjjiO-67" value="Да" style="text;html=1;strokeColor=none;fillColor=none;align=center;verticalAlign=middle;whiteSpace=wrap;rounded=0;" parent="1" vertex="1">
          <mxGeometry x="395.98" y="861" width="60" height="30" as="geometry" />
        </mxCell>
        <mxCell id="ktROlowu1Rv2FZnEjjiO-68" value="Да" style="text;html=1;strokeColor=none;fillColor=none;align=center;verticalAlign=middle;whiteSpace=wrap;rounded=0;" parent="1" vertex="1">
          <mxGeometry x="391.98" y="482" width="60" height="30" as="geometry" />
        </mxCell>
        <mxCell id="ktROlowu1Rv2FZnEjjiO-71" style="edgeStyle=orthogonalEdgeStyle;rounded=0;orthogonalLoop=1;jettySize=auto;html=1;exitX=0.5;exitY=1;exitDx=0;exitDy=0;entryX=0.5;entryY=0;entryDx=0;entryDy=0;" parent="1" source="ktROlowu1Rv2FZnEjjiO-69" target="ktROlowu1Rv2FZnEjjiO-45" edge="1">
          <mxGeometry relative="1" as="geometry" />
        </mxCell>
        <mxCell id="ktROlowu1Rv2FZnEjjiO-69" value="minm = i" style="rounded=0;whiteSpace=wrap;html=1;" parent="1" vertex="1">
          <mxGeometry x="378.5" y="282" width="60" height="27" as="geometry" />
        </mxCell>
        <mxCell id="ktROlowu1Rv2FZnEjjiO-75" value="" style="edgeStyle=orthogonalEdgeStyle;rounded=0;orthogonalLoop=1;jettySize=auto;html=1;" parent="1" source="ktROlowu1Rv2FZnEjjiO-72" target="ktROlowu1Rv2FZnEjjiO-74" edge="1">
          <mxGeometry relative="1" as="geometry" />
        </mxCell>
        <mxCell id="ktROlowu1Rv2FZnEjjiO-72" value="minm != i" style="rhombus;whiteSpace=wrap;html=1;" parent="1" vertex="1">
          <mxGeometry x="368.98" y="627" width="80" height="42" as="geometry" />
        </mxCell>
        <mxCell id="ktROlowu1Rv2FZnEjjiO-76" style="edgeStyle=orthogonalEdgeStyle;rounded=0;orthogonalLoop=1;jettySize=auto;html=1;exitX=0.5;exitY=1;exitDx=0;exitDy=0;entryX=0;entryY=0.5;entryDx=0;entryDy=0;" parent="1" source="ktROlowu1Rv2FZnEjjiO-74" target="ktROlowu1Rv2FZnEjjiO-43" edge="1">
          <mxGeometry relative="1" as="geometry">
            <Array as="points">
              <mxPoint x="409" y="732" />
              <mxPoint x="300" y="732" />
              <mxPoint x="300" y="243" />
            </Array>
          </mxGeometry>
        </mxCell>
        <mxCell id="ktROlowu1Rv2FZnEjjiO-74" value="swap(a[i], a[minm])&lt;br&gt;count++" style="whiteSpace=wrap;html=1;" parent="1" vertex="1">
          <mxGeometry x="348.98" y="690" width="120" height="33" as="geometry" />
        </mxCell>
        <mxCell id="h-tUeLm_ri5Tn7Ogdh93-1" value="" style="endArrow=none;html=1;rounded=0;exitX=0;exitY=0.5;exitDx=0;exitDy=0;entryX=0.1;entryY=0.867;entryDx=0;entryDy=0;entryPerimeter=0;" edge="1" parent="1" source="ktROlowu1Rv2FZnEjjiO-12" target="ktROlowu1Rv2FZnEjjiO-34">
          <mxGeometry width="50" height="50" relative="1" as="geometry">
            <mxPoint x="387" y="-544" as="sourcePoint" />
            <mxPoint x="437" y="-594" as="targetPoint" />
          </mxGeometry>
        </mxCell>
        <mxCell id="h-tUeLm_ri5Tn7Ogdh93-3" value="" style="endArrow=none;html=1;rounded=0;exitX=0;exitY=0.5;exitDx=0;exitDy=0;" edge="1" parent="1" source="ktROlowu1Rv2FZnEjjiO-72">
          <mxGeometry width="50" height="50" relative="1" as="geometry">
            <mxPoint x="530" y="539" as="sourcePoint" />
            <mxPoint x="301" y="648" as="targetPoint" />
          </mxGeometry>
        </mxCell>
        <mxCell id="h-tUeLm_ri5Tn7Ogdh93-4" value="Нет" style="text;html=1;strokeColor=none;fillColor=none;align=center;verticalAlign=middle;whiteSpace=wrap;rounded=0;" vertex="1" parent="1">
          <mxGeometry x="320.98" y="619" width="60" height="30" as="geometry" />
        </mxCell>
        <mxCell id="h-tUeLm_ri5Tn7Ogdh93-6" value="" style="endArrow=none;html=1;rounded=0;exitX=0;exitY=0.5;exitDx=0;exitDy=0;entryX=0.133;entryY=0.908;entryDx=0;entryDy=0;entryPerimeter=0;" edge="1" parent="1" source="ktROlowu1Rv2FZnEjjiO-50" target="ktROlowu1Rv2FZnEjjiO-66">
          <mxGeometry width="50" height="50" relative="1" as="geometry">
            <mxPoint x="530" y="482" as="sourcePoint" />
            <mxPoint x="580" y="432" as="targetPoint" />
          </mxGeometry>
        </mxCell>
      </root>
    </mxGraphModel>
  </diagram>
</mxfile>
